<svg width="152" height="23" viewBox="0 0 152 23" fill="none" xmlns="http://www.w3.org/2000/svg">
<path d="M31.1011 1.86702H34.1558L37.8353 9.96346L41.4917 1.86702H44.5464V17.9679H41.6537V8.37637L39.0618 14.1497H36.5857L33.9938 8.37637V17.9679H31.1011V1.86702Z" fill="#083A31"/>
<path d="M52.7657 14.6097C53.136 14.2877 53.3211 13.866 53.3211 13.3446C53.3211 12.8079 53.136 12.3863 52.7657 12.0796C52.3954 11.7576 51.9326 11.5965 51.3772 11.5965C50.8218 11.5965 50.359 11.7576 49.9887 12.0796C49.6184 12.3863 49.4333 12.8079 49.4333 13.3446C49.4333 13.866 49.6184 14.2877 49.9887 14.6097C50.359 14.9164 50.8218 15.0697 51.3772 15.0697C51.9326 15.0697 52.3954 14.9164 52.7657 14.6097ZM57.2089 17.9679H54.2931L54.0848 17.0478C53.2362 17.6612 52.3337 17.9679 51.3772 17.9679C50.035 17.9679 48.8856 17.5232 47.9291 16.6338C46.988 15.7444 46.5174 14.648 46.5174 13.3446C46.5174 12.0106 46.988 10.9065 47.9291 10.0325C48.8702 9.14308 50.0195 8.69839 51.3772 8.69839C52.056 8.69839 52.704 8.82873 53.3211 9.08941V8.72139C53.3211 8.30737 53.1591 7.99302 52.8351 7.77834C52.5111 7.56366 52.1254 7.44866 51.678 7.43332C51.2306 7.43332 50.8527 7.47932 50.5441 7.57133L48.4613 5.52422C49.2019 4.89552 50.2741 4.58117 51.678 4.58117C52.974 4.58117 54.0539 4.96452 54.9179 5.73123C55.7818 6.49794 56.2138 7.49466 56.2138 8.72139C56.2138 9.12008 56.2138 9.87912 56.2138 10.9985C56.2292 12.1026 56.237 12.9536 56.237 13.5517L57.2089 17.9679Z" fill="#083A31"/>
<path d="M58.9601 13.1376V0.80896H61.8759V4.58117H65.648V7.45632H61.8759V13.1146C61.8759 13.6973 62.0611 14.1727 62.4313 14.5407C62.817 14.9087 63.2799 15.0927 63.8198 15.0927C64.329 15.0927 64.7687 15.0084 65.1389 14.8397L67.1523 16.8638C66.242 17.5999 65.1312 17.9679 63.8198 17.9679C62.4931 17.9679 61.3514 17.5002 60.3949 16.5648C59.4383 15.6141 58.9601 14.4717 58.9601 13.1376Z" fill="#083A31"/>
<path d="M69.2554 16.0128C67.9441 14.7094 67.2884 13.13 67.2884 11.2745C67.2884 9.4191 67.9441 7.83968 69.2554 6.53627C70.5668 5.23287 72.1559 4.58117 74.0226 4.58117C75.8894 4.58117 77.4785 5.23287 78.7898 6.53627L76.7302 8.58338C75.9897 7.83201 75.0872 7.45632 74.0226 7.45632C72.9581 7.45632 72.0556 7.83201 71.3151 8.58338C70.5745 9.31942 70.2043 10.2165 70.2043 11.2745C70.2043 12.3326 70.5745 13.2296 71.3151 13.9657C72.0556 14.7017 72.9581 15.0697 74.0226 15.0697C75.0872 15.0697 75.9897 14.7017 76.7302 13.9657L78.7898 16.0128C77.4785 17.3162 75.8894 17.9679 74.0226 17.9679C72.1559 17.9679 70.5668 17.3162 69.2554 16.0128Z" fill="#083A31"/>
<path d="M80.5694 0.80896H83.4621V4.99519C84.0792 4.71917 84.7272 4.58117 85.406 4.58117C86.7482 4.58117 87.8899 5.05653 88.831 6.00724C89.7875 6.94263 90.2658 8.06969 90.2658 9.38843V17.9679H87.3731V9.41143C87.3731 8.87473 87.1802 8.41471 86.7945 8.03135C86.4088 7.648 85.946 7.45632 85.406 7.45632C84.8815 7.45632 84.4263 7.648 84.0406 8.03135C83.6549 8.41471 83.4621 8.87473 83.4621 9.41143V17.9679H80.5694V0.80896Z" fill="#083A31"/>
<path d="M100.202 7.82434C100.202 6.88896 99.8626 6.14525 99.1838 5.59322C98.5204 5.02586 97.7028 4.74217 96.7308 4.74217H95.7126V11.2745H96.7308C97.6873 11.2745 98.505 10.9372 99.1838 10.2625C99.8626 9.58777 100.202 8.77506 100.202 7.82434ZM97.1242 14.1497C96.8619 14.165 96.3914 14.165 95.7126 14.1497V17.9679H92.8199V1.86702H96.7308C98.505 1.86702 100.009 2.42672 101.243 3.54611C102.478 4.6655 103.095 6.09158 103.095 7.82434C103.095 8.9284 102.817 9.96346 102.262 10.9295C101.722 11.8956 100.966 12.6699 99.9938 13.2526L103.187 17.9679H99.7161L97.1242 14.1497Z" fill="#083A31"/>
<path d="M111.312 15.0697C112.376 15.0697 113.279 14.7017 114.019 13.9657C114.775 13.2143 115.153 12.3173 115.153 11.2745C115.153 10.2165 114.775 9.31942 114.019 8.58338C113.279 7.83201 112.376 7.45632 111.312 7.45632C110.262 7.45632 109.36 7.83201 108.604 8.58338C107.863 9.31942 107.493 10.2165 107.493 11.2745C107.493 12.3326 107.863 13.2296 108.604 13.9657C109.36 14.7017 110.262 15.0697 111.312 15.0697ZM106.544 16.0128C105.233 14.7094 104.577 13.13 104.577 11.2745C104.577 9.4191 105.233 7.83968 106.544 6.53627C107.871 5.23287 109.46 4.58117 111.312 4.58117C113.178 4.58117 114.767 5.23287 116.079 6.53627C117.39 7.83968 118.046 9.4191 118.046 11.2745C118.046 13.13 117.39 14.7094 116.079 16.0128C114.767 17.3162 113.178 17.9679 111.312 17.9679C109.445 17.9679 107.856 17.3162 106.544 16.0128Z" fill="#083A31"/>
<path d="M126.137 15.0697C127.201 15.0697 128.104 14.7017 128.844 13.9657C129.6 13.2143 129.978 12.3173 129.978 11.2745C129.978 10.2165 129.6 9.31942 128.844 8.58338C128.104 7.83201 127.201 7.45632 126.137 7.45632C125.088 7.45632 124.185 7.83201 123.429 8.58338C122.689 9.31942 122.318 10.2165 122.318 11.2745C122.318 12.3326 122.689 13.2296 123.429 13.9657C124.185 14.7017 125.088 15.0697 126.137 15.0697ZM121.37 16.0128C120.058 14.7094 119.402 13.13 119.402 11.2745C119.402 9.4191 120.058 7.83968 121.37 6.53627C122.696 5.23287 124.285 4.58117 126.137 4.58117C128.003 4.58117 129.593 5.23287 130.904 6.53627C132.215 7.83968 132.871 9.4191 132.871 11.2745C132.871 13.13 132.215 14.7094 130.904 16.0128C129.593 17.3162 128.003 17.9679 126.137 17.9679C124.27 17.9679 122.681 17.3162 121.37 16.0128Z" fill="#083A31"/>
<path d="M134.69 9.38843C134.69 8.06969 135.161 6.94263 136.102 6.00724C137.059 5.05653 138.208 4.58117 139.55 4.58117C140.862 4.58117 141.996 5.04886 142.952 5.98424C143.893 5.04886 145.027 4.58117 146.354 4.58117C147.696 4.58117 148.838 5.05653 149.779 6.00724C150.735 6.94263 151.214 8.06969 151.214 9.38843V17.9679H148.321V9.41143C148.321 8.87473 148.128 8.41471 147.742 8.03135C147.357 7.648 146.894 7.45632 146.354 7.45632C145.814 7.45632 145.351 7.648 144.965 8.03135C144.58 8.41471 144.387 8.87473 144.387 9.41143V17.9679H141.517V9.41143C141.517 8.87473 141.324 8.41471 140.939 8.03135C140.553 7.648 140.09 7.45632 139.55 7.45632C139.01 7.45632 138.547 7.648 138.162 8.03135C137.776 8.41471 137.583 8.87473 137.583 9.41143V17.9679H134.69V9.38843Z" fill="#083A31"/>
<g clip-path="url(#clip0_125_3)">
<path d="M9.5772 10.1598C9.26566 10.4469 8.94276 10.7326 8.63879 11.0389C8.59086 11.0876 8.59968 11.2375 8.63374 11.3183C8.85573 11.836 9.07142 12.3575 9.32746 12.8573C9.68063 13.5441 9.71343 14.2169 9.43215 14.9447C8.56311 17.1924 7.71929 19.4515 6.8679 21.7069C6.45797 22.7935 5.82479 23.0729 4.73754 22.6487C3.46613 22.1515 2.19473 21.6582 0.922058 21.1635C0.170314 20.8714 -0.184116 20.1192 0.0958965 19.349C0.491949 18.2611 0.905661 17.1795 1.31433 16.0967C1.78606 14.8448 2.27671 13.5992 2.727 12.3396C2.98809 11.6079 3.43964 11.1184 4.15733 10.839C4.70474 10.6263 5.22188 10.3367 5.76425 10.1073C5.99002 10.0112 5.95723 9.83948 5.97615 9.66777C6.10733 8.41837 6.19562 7.16256 6.38229 5.92085C6.51473 5.03794 6.77961 4.17682 7.41909 3.50022C7.76595 3.13373 8.18597 3.012 8.67789 3.06197C8.79645 3.0735 8.9642 3.02097 9.04367 2.93511C11.0845 0.723352 14.6767 0.904034 16.4312 3.34901C17.579 4.94696 17.7139 6.68203 16.8954 8.4786C16.8045 8.67722 16.8197 8.80537 16.9395 8.96042C17.0618 9.11932 17.1766 9.2859 17.2876 9.45505C17.473 9.73569 17.5361 10.015 17.3974 10.3559C17.2044 10.8275 17.2914 10.9364 17.7947 10.9812C18.2967 11.0261 18.4014 11.1683 18.2891 11.663C18.2223 11.9539 18.1277 12.2383 18.0772 12.5318C18.0078 12.9316 18.1907 13.0918 18.5817 13.0085C18.7962 12.9623 19.0118 12.9124 19.2288 12.8867C19.6198 12.8419 19.7295 12.9559 19.7623 13.3442C19.7712 13.4429 19.8632 13.5813 19.9515 13.6197C20.8748 14.0182 21.5332 15.11 21.4449 16.1301C21.4083 16.544 21.3692 16.9579 21.3251 17.3718C21.2759 17.8459 20.9782 18.1188 20.5431 18.0368C20.0184 17.9382 19.4937 17.8177 18.9828 17.6639C18.5426 17.5307 18.1958 17.2398 17.9208 16.8592C16.5712 14.9973 15.214 13.1405 13.8669 11.276C13.7585 11.1248 13.6613 11.0838 13.4772 11.1171C12.0733 11.3657 10.7931 11.0658 9.65414 10.1829C9.63901 10.1714 9.61504 10.1714 9.58225 10.1637L9.5772 10.1598ZM8.96168 9.57038C7.56541 7.81738 7.3636 5.89651 8.38778 3.81674C7.9438 3.87568 7.74451 4.19604 7.59315 4.52793C6.82754 6.20149 6.82123 8.00959 6.68753 9.82539C7.27783 9.83692 7.75208 10.0586 8.18976 10.5007C8.45463 10.1816 8.70437 9.88177 8.96168 9.57038ZM3.08774 18.625C3.02467 18.3931 2.86575 18.1445 2.92629 17.9766C3.17729 17.2769 3.49514 16.6016 3.78777 15.9186C3.82182 15.925 3.85588 15.9327 3.88993 15.9391V18.9338C3.9202 18.9428 3.95174 18.9518 3.98201 18.9607C4.55086 18.1957 5.11972 17.432 5.68983 16.667C5.55991 17.3449 5.36315 17.983 5.1853 18.6263C5.09197 18.9659 4.93809 19.2004 4.53573 19.1978C4.98854 19.3721 5.44135 19.5464 5.82227 19.6937C5.82227 19.4387 5.7756 19.2068 5.8311 19.003C6.0266 18.2739 6.26121 17.5563 6.46806 16.8297C6.53869 16.5837 6.63582 16.3902 6.92718 16.3594C6.58915 16.2287 6.25238 16.098 6.01273 16.0045C5.54226 16.6618 5.1071 17.2705 4.67321 17.8792C4.63537 17.8651 4.59879 17.8497 4.56095 17.8356C4.56095 17.1219 4.56474 16.4094 4.55591 15.6956C4.55465 15.5944 4.51681 15.4368 4.4487 15.4022C4.19139 15.2728 3.91516 15.1844 3.64524 15.0793C3.88363 15.3689 3.82182 15.6405 3.68055 15.9237C3.40937 16.4645 3.13567 17.004 2.8834 17.5537C2.71943 17.9125 2.53402 18.2175 2.07868 18.2367C2.42302 18.3687 2.76736 18.5007 3.08648 18.6224L3.08774 18.625ZM11.2068 6.61924C11.1778 6.63589 11.2144 6.61924 11.2459 6.59489C12.0469 5.99646 12.8491 5.40187 13.6449 4.79704C14.0145 4.5164 14.0057 4.33828 13.626 4.06277C12.5955 3.31185 11.4364 3.59889 10.6556 4.43183C10.6027 4.48821 10.5875 4.62404 10.6115 4.70605C10.7994 5.34036 11.0025 5.97083 11.2068 6.61924ZM6.30409 11.3144C5.81975 11.3746 5.47162 11.7334 5.3909 12.2742C5.31774 12.7599 5.5864 13.2635 6.03291 13.4788C6.52104 13.7145 7.06845 13.5928 7.4254 13.1687C7.72559 12.8111 7.75586 12.287 7.54018 11.9436C7.24125 11.9974 6.90448 12.1666 6.71654 12.0615C6.50969 11.9462 6.43905 11.5784 6.30535 11.3144H6.30409ZM10.2608 6.84989C10.3025 6.84221 10.3453 6.8358 10.387 6.82811C10.3226 6.39242 10.2583 5.95673 10.194 5.52105C10.1612 5.52617 10.1297 5.5313 10.0969 5.53642C10.0086 5.99518 10.0351 6.43727 10.2608 6.84989Z" fill="#083A31"/>
</g>
<defs>
<clipPath id="clip0_125_3">
<rect width="21.4487" height="21.4487" fill="white" transform="translate(0 0.80896)"/>
</clipPath>
</defs>
</svg>
