<?xml version="1.0" encoding="UTF-8"?>
<svg id="Calque_1" data-name="Calque 1" xmlns="http://www.w3.org/2000/svg" viewBox="0 0 97.49 85.48">
  <path d="M82.19,40.48h-7V7.48H22.19v33h-7V1.98c0-.17,1.54-1.76,2.02-1.98h62.97c.47.22,2.02,1.81,2.02,1.98v38.5Z"/>
  <rect x="30.19" y="14.48" width="15" height="26"/>
  <rect x="52.19" y="14.48" width="15" height="26"/>
  <path d="M95.19,40.94c-5.5-2.83-4.09,7.56-8.53,7.52l-78.08-.87c-4.79-16.28-13.99-.11-4.36,6.36,1.4.94,4.96,1.53,5.01,2.1-2.18,7.31-1.98,13.49-.11,20.82-.64,2.09-6.74.91-4.8,6.97.18.55.89,1.5,1.37,1.64h85c2.71,0,3.43-4.01,2.04-6.05-.78-1.15-3.92-.79-4.47-2.57,2.07-7.45,1.57-13.91-.07-21.38,6.86,1.26,12.7-11.63,7.01-14.56ZM18.88,55.66c1.45-.45,4.72-.56,5.04,1.28-1.83,6.87-1.83,13.22,0,20.09-10.32,7.92-11.03-19.53-5.04-21.37ZM37.19,78.48l-5.52-.98c-2.64-7.17-1.26-14.67-.47-22.01h5.99s0,22.99,0,22.99ZM52.19,78.48h-7v-23h7v23ZM67.07,71.87c-.63,4.97-1.03,7.54-6.88,6.62v-23h5.99c.45,5.54,1.6,10.74.89,16.38ZM73.45,77.03c.29-3.02,1.73-7.22,1.73-10.05,0-2.44-3.03-10.67-.38-11.4,11.02-3.03,9.59,29.43-1.35,21.44Z"/>
</svg>