<?xml version="1.0" encoding="UTF-8"?>
<svg id="Calque_1" data-name="Calque 1" xmlns="http://www.w3.org/2000/svg" viewBox="0 0 67.18 90.3">
  <path d="M53.09,64.27l-4.57-15.88-27.33.98-10.32,38.18-3.28,2.75-3.52-3.59,9.95-39.01c-3.01-4.93-10.52-12.2-4.27-17.33,5.98-.98,4.48,3.81,5.88,6.85,2.35,5.1,5.01,1.27,8.89.98,4.88-.37,14.38-.5,19.12.01,2.1.23,3.88,2.09,4.8,1.95,4.4-.7,3.09-13.47,9.66-9.42,5.14,3.17-2.05,11.09-1.96,14.91l10.96,41.07c-7.92,11.84-8.87-11.21-12.52-15.45h-30c-2.91,0-2.91-7,0-7h28.5Z"/>
  <path d="M55.21,15.15c1.36,1.2,10.38-2.03,11.74,2.82,2.24,7.97-12.6,4.22-16.19,5.46-2.95,1.01-1.66,6.6-5.18,6.91-5.94.52-4.95-6.73-2.34-10.44,2.19-3.12,6.55-2.99,2.75-9.04-2.43-3.87-21.64-3.77-24.36-.57-5.61,6.61,3.84,8.13,4.46,14.57.36,3.75-2.89,7.15-6.05,4.96-1.47-1.02-1.01-5.51-3.61-6.4C12.86,22.2.56,25.51.03,19.74c-.66-7.1,10.56-3.35,11.96-4.59s1.67-9.61,8.41-13.08c5.36-2.76,21.04-2.76,26.4,0,6.73,3.47,7.04,11.88,8.41,13.08Z"/>
</svg>