<?xml version="1.0" encoding="UTF-8"?>
<svg id="Calque_1" data-name="Calque 1" xmlns="http://www.w3.org/2000/svg" viewBox="0 0 105.23 82.74">
  <path d="M34.01,82.74c-1.88-4.99,3.54-7.75,3.55-11.5s-4.88-7.05-3.55-11.5h45.5c3.84,0,2.61,17.85,2,21-.27.45-2.72,2-3,2h-44.5Z"/>
  <path d="M26.01,59.74c1.55,5.33-3.12,6.99-3.12,11.5s4.66,6.17,3.12,11.5h-15.5C6,82.74,0,76.12,0,71.24c0-4.23,5.5-11.5,9.51-11.5h16.5Z"/>
  <path d="M64.4,8.11c-16.6,22.15,19.26,22.69,17.7,40.14-.32,3.65-3.69,6.4-6.17,3.07-1.61-2.17-.47-5.27-3.37-8.62-8.69-10.03-22.13-9.11-19.46-28.37.69-4.94,9.42-19.24,13.42-12.6,2.47,4.09-.96,4.83-2.13,6.39Z"/>
  <path d="M85.67,19.08c2.01,2.1,2.54,6.43,3.56,7.44,2.37,2.35,7.12,1.55,10.34,8.16,2.69,5.52.36,13.25-4.63,9.63-1.16-.84-1.22-5.07-2.14-6.87-2.44-4.78-7.24-2.67-9.32-4.68-1.88-1.81-.67-5.81-2.9-8.1s-12.92-1.76-9.1-7.95c2.38-3.86,11.67-.28,14.19,2.35Z"/>
  <path d="M92.77,60.99c1.63,1.65,1.73,14.55,1.22,17.23-.61,3.21-4.42,5.98-6.99,3.04-1.38-1.59-2.68-19.99,1.72-21.37,1.13-.27,3.25.3,4.05,1.11Z"/>
  <path d="M103.77,81.5c-1.14,1.18-3.7,1.22-5.07.33-2.48-1.62-4.43-27.28,4.83-21.1,2.18,2.19,2.25,18.71.23,20.78Z"/>
</svg>