<?xml version="1.0" encoding="UTF-8"?>
<svg id="Calque_1" data-name="Calque 1" xmlns="http://www.w3.org/2000/svg" viewBox="0 0 83.15 83.15">
  <defs>
    <style>
      .cls-1 {
        fill: #fff;
      }
    </style>
  </defs>
  <rect width="83.15" height="83.15" rx="8.11" ry="8.11"/>
  <g>
    <path class="cls-1" d="M40,70.18l-.06-57.21c0-.85.69-1.55,1.54-1.55.85,0,1.55.69,1.55,1.54l.06,57.21c0,.85-.69,1.55-1.54,1.55-.85,0-1.55-.69-1.55-1.54Z"/>
    <path class="cls-1" d="M40,70.18l-.06-57.21c0-.85.69-1.55,1.54-1.55.85,0,1.55.69,1.55,1.54l.06,57.21c0,.85-.69,1.55-1.54,1.55-.85,0-1.55-.69-1.55-1.54M40,70.18c0,.85.69,1.54,1.55,1.54.85,0,1.54-.69,1.54-1.55l-.06-57.21c0-.85-.69-1.54-1.55-1.54-.85,0-1.54.69-1.54,1.55l.06,57.21Z"/>
    <path class="cls-1" d="M46.86,66.51l-6.45-6.45h2.2s-6.19,6.32-6.19,6.32c-.6.61-1.57.62-2.18.03-.61-.6-.62-1.57-.03-2.19l6.19-6.34c.29-.3.68-.46,1.1-.46.41,0,.81.16,1.1.45l6.45,6.45c.6.6.6,1.58,0,2.19-.6.6-1.58.6-2.18,0Z"/>
    <path class="cls-1" d="M46.86,66.51l-6.45-6.45h2.2s-6.19,6.32-6.19,6.32c-.6.61-1.57.62-2.18.03h0c-.61-.6-.62-1.58-.03-2.19l6.19-6.34c.29-.3.68-.46,1.1-.46.41,0,.81.16,1.1.45l6.45,6.45c.6.6.6,1.58,0,2.19-.6.6-1.58.6-2.18,0M46.86,66.51c.6.6,1.58.6,2.18,0,.6-.6.6-1.58,0-2.19l-6.45-6.45c-.29-.29-.69-.45-1.1-.45-.41,0-.81.17-1.1.46l-6.19,6.34c-.6.61-.58,1.59.03,2.19h0c.61.6,1.59.58,2.18-.03l6.19-6.34h-2.2s6.45,6.46,6.45,6.46Z"/>
    <path class="cls-1" d="M44.53,54.66l-4.13-3.95h2.13l-4.01,3.83c-.62.59-1.6.57-2.18-.05-.59-.62-.57-1.6.05-2.18l4.01-3.83c.6-.57,1.54-.57,2.14,0l4.13,3.95c.62.59.64,1.57.05,2.18-.59.62-1.57.64-2.18.05Z"/>
    <path class="cls-1" d="M44.53,54.66l-4.13-3.95h2.13l-4.01,3.83c-.62.59-1.6.57-2.18-.05-.59-.62-.57-1.59.05-2.18h0s4.01-3.83,4.01-3.83c.6-.57,1.54-.57,2.14,0l4.13,3.95c.62.59.64,1.57.05,2.18-.59.62-1.57.64-2.18.05M44.53,54.66c.62.59,1.59.57,2.18-.05.59-.62.57-1.59-.05-2.18l-4.13-3.95c-.6-.57-1.54-.57-2.14,0l-4.01,3.83h0c-.62.59-.64,1.57-.05,2.18.59.62,1.57.64,2.18.05l4.01-3.83h-2.13l4.13,3.95Z"/>
    <path class="cls-1" d="M48.76,18.97l-6.4,6.27c-.3.29-.7.45-1.11.44-.41,0-.81-.18-1.09-.48l-6.04-6.37c-.59-.62-.56-1.6.06-2.18.62-.59,1.6-.56,2.18.06l6.04,6.37-2.2-.04,6.4-6.27c.61-.6,1.59-.59,2.19.02.6.61.59,1.59-.02,2.19Z"/>
    <path class="cls-1" d="M48.76,18.97l-6.4,6.27c-.3.29-.7.45-1.11.44-.41,0-.81-.18-1.09-.48l-6.04-6.37c-.59-.62-.56-1.6.06-2.18h0c.62-.59,1.6-.56,2.18.06l6.04,6.37-2.2-.04,6.4-6.27c.61-.6,1.59-.59,2.19.02.6.61.59,1.59-.02,2.19M48.76,18.97c.61-.6.62-1.58.02-2.19-.6-.61-1.58-.62-2.19-.02l-6.4,6.27,2.2.04-6.04-6.37c-.59-.62-1.57-.64-2.18-.06h0c-.62.59-.64,1.57-.06,2.18l6.04,6.37c.29.3.68.47,1.09.48.41,0,.81-.15,1.11-.44l6.4-6.27Z"/>
    <path class="cls-1" d="M46.62,30.61l-3.96,4.02c-.59.6-1.55.62-2.16.04l-4.21-3.97c-.62-.58-.65-1.56-.06-2.18.59-.62,1.56-.65,2.18-.06l4.21,3.97-2.16.04,3.96-4.02c.6-.61,1.58-.62,2.18-.02.61.6.62,1.58.02,2.18Z"/>
    <path class="cls-1" d="M46.62,30.61l-3.96,4.02c-.59.6-1.55.62-2.16.04l-4.21-3.97c-.62-.58-.65-1.56-.06-2.18.58-.62,1.56-.65,2.18-.07h0s4.21,3.97,4.21,3.97l-2.16.04,3.96-4.02c.6-.61,1.58-.62,2.18-.02h0c.61.6.62,1.58.02,2.18h0M46.62,30.61h0c.6-.61.59-1.59-.02-2.18h0c-.61-.6-1.59-.59-2.18.02l-3.96,4.02,2.16-.04-4.21-3.97h0c-.62-.59-1.6-.56-2.18.06-.58.62-.56,1.6.06,2.18l4.21,3.97c.61.58,1.57.56,2.16-.04l3.96-4.02Z"/>
    <path class="cls-1" d="M65.57,57.25L15.99,28.7c-.74-.43-.99-1.37-.57-2.11.43-.74,1.37-.99,2.11-.57l49.58,28.56c.74.43.99,1.37.57,2.11-.42.74-1.37.99-2.11.57Z"/>
    <path class="cls-1" d="M65.57,57.25L15.99,28.7c-.74-.43-.99-1.37-.57-2.11.43-.74,1.37-.99,2.11-.57l49.58,28.56c.74.43.99,1.37.57,2.11h0c-.42.74-1.37.99-2.11.57h0M65.57,57.25h0c.74.43,1.68.17,2.11-.57h0c.43-.74.17-1.68-.57-2.11L17.53,26.02c-.74-.43-1.68-.17-2.11.57-.43.74-.17,1.68.57,2.11l49.58,28.56Z"/>
    <path class="cls-1" d="M65.82,49.48l-8.81,2.36,1.09-1.91,2.39,8.53c.23.82-.25,1.67-1.07,1.91-.82.23-1.67-.25-1.9-1.07l-2.39-8.53c-.11-.4-.06-.82.15-1.18.2-.36.54-.62.94-.73l8.81-2.36c.82-.22,1.67.27,1.89,1.09.22.82-.27,1.67-1.09,1.89Z"/>
    <path class="cls-1" d="M65.82,49.48l-8.81,2.36,1.09-1.91,2.39,8.53c.23.82-.25,1.67-1.07,1.91h0c-.82.23-1.67-.25-1.9-1.07l-2.39-8.53c-.11-.4-.06-.82.15-1.18.2-.36.54-.62.94-.73l8.81-2.36c.82-.22,1.67.27,1.89,1.09.22.82-.27,1.67-1.09,1.89M65.82,49.48c.82-.22,1.31-1.07,1.09-1.89-.22-.82-1.07-1.31-1.89-1.09l-8.81,2.36c-.4.11-.74.37-.94.73-.2.36-.26.78-.15,1.18l2.39,8.53c.23.82,1.08,1.3,1.9,1.07h0c.82-.23,1.3-1.08,1.07-1.91l-2.39-8.53-1.09,1.91,8.81-2.36Z"/>
    <path class="cls-1" d="M54.4,45.57l-5.49,1.6,1.07-1.85,1.31,5.39c.2.83-.31,1.66-1.14,1.87-.83.2-1.66-.31-1.87-1.14l-1.31-5.39c-.2-.8.27-1.62,1.07-1.85l5.49-1.6c.82-.24,1.68.23,1.92,1.05.24.82-.23,1.68-1.05,1.92Z"/>
    <path class="cls-1" d="M54.4,45.57l-5.49,1.6,1.07-1.85,1.31,5.39c.2.83-.31,1.66-1.14,1.87-.83.2-1.66-.31-1.87-1.14l-1.31-5.39c-.2-.8.27-1.62,1.07-1.85l5.49-1.6c.82-.24,1.68.23,1.92,1.05.24.82-.23,1.68-1.05,1.92M54.4,45.57c.82-.24,1.29-1.1,1.05-1.92-.24-.82-1.1-1.29-1.92-1.05l-5.49,1.6c-.79.23-1.26,1.05-1.07,1.85l1.31,5.39c.2.83,1.04,1.34,1.87,1.14.83-.2,1.34-1.04,1.14-1.87l-1.31-5.39-1.07,1.85,5.49-1.6Z"/>
    <path class="cls-1" d="M25.6,24.06l2.23,8.68c.1.4.04.83-.17,1.18-.21.36-.56.61-.96.71l-8.54,2.05c-.83.2-1.66-.31-1.86-1.14-.2-.83.31-1.66,1.14-1.86l8.54-2.05-1.14,1.89-2.23-8.68c-.21-.83.29-1.67,1.11-1.88.83-.21,1.67.29,1.88,1.11Z"/>
    <path class="cls-1" d="M25.6,24.06l2.23,8.68c.1.4.04.83-.17,1.18-.21.36-.56.61-.96.71l-8.54,2.05c-.83.2-1.66-.31-1.86-1.14h0c-.2-.83.31-1.66,1.14-1.86l8.54-2.05-1.14,1.89-2.23-8.68c-.21-.83.29-1.67,1.11-1.88.83-.21,1.67.29,1.88,1.11h0M25.6,24.06h0c-.21-.83-1.05-1.32-1.88-1.11-.83.21-1.32,1.05-1.11,1.88l2.23,8.68,1.14-1.89-8.54,2.05c-.83.2-1.34,1.03-1.14,1.86h0c.2.83,1.03,1.34,1.86,1.14l8.54-2.05c.4-.1.75-.35.96-.71.21-.35.28-.78.17-1.18l-2.23-8.68Z"/>
    <path class="cls-1" d="M34.61,31.74l1.5,5.44c.22.81-.24,1.65-1.05,1.89l-5.54,1.66c-.82.25-1.68-.22-1.92-1.04-.25-.82.22-1.68,1.04-1.92l5.54-1.66-1.05,1.89-1.5-5.44c-.23-.82.26-1.67,1.08-1.9.82-.23,1.67.26,1.9,1.08Z"/>
    <path class="cls-1" d="M34.61,31.74l1.5,5.44c.22.81-.24,1.65-1.05,1.89l-5.54,1.66c-.82.25-1.68-.22-1.92-1.04-.25-.82.22-1.68,1.04-1.92h0l5.54-1.66-1.05,1.89-1.5-5.44c-.23-.82.26-1.67,1.08-1.9.82-.23,1.67.26,1.9,1.08M34.61,31.74c-.23-.82-1.08-1.3-1.9-1.08-.82.23-1.3,1.08-1.08,1.9l1.5,5.44,1.05-1.89-5.54,1.66h0c-.82.25-1.28,1.11-1.04,1.92.25.82,1.11,1.28,1.92,1.04l5.54-1.66c.8-.24,1.27-1.08,1.05-1.89l-1.5-5.44Z"/>
    <path class="cls-1" d="M67.16,28.65l-49.52,28.65c-.74.43-1.68.18-2.11-.56-.43-.74-.18-1.68.56-2.11l49.52-28.66c.74-.43,1.68-.17,2.11.56.43.74.17,1.68-.56,2.11Z"/>
    <path class="cls-1" d="M67.16,28.65l-49.52,28.65c-.74.43-1.68.18-2.11-.56h0c-.43-.74-.18-1.68.56-2.11h0s49.52-28.66,49.52-28.66c.74-.43,1.68-.17,2.11.56.43.74.17,1.68-.56,2.11M67.16,28.65c.74-.43.99-1.37.56-2.11-.43-.74-1.37-.99-2.11-.56l-49.52,28.66h0c-.74.43-.99,1.37-.56,2.11h0c.43.74,1.37.99,2.11.56l49.52-28.65Z"/>
    <path class="cls-1" d="M60.55,24.53l-2.36,8.81-1.11-1.9,8.58,2.19c.83.21,1.33,1.05,1.11,1.88-.21.83-1.05,1.33-1.88,1.11l-8.58-2.19c-.4-.1-.74-.36-.95-.72-.21-.36-.27-.78-.16-1.18l2.36-8.81c.22-.82,1.07-1.31,1.89-1.09s1.31,1.07,1.09,1.89Z"/>
    <path class="cls-1" d="M60.55,24.53l-2.36,8.81-1.11-1.9,8.58,2.19c.83.21,1.33,1.05,1.11,1.88-.21.83-1.05,1.33-1.88,1.11l-8.58-2.19c-.4-.1-.74-.36-.95-.72-.21-.36-.27-.78-.16-1.18l2.36-8.81c.22-.82,1.07-1.31,1.89-1.09h0c.82.22,1.31,1.07,1.09,1.89M60.55,24.53c.22-.82-.27-1.67-1.09-1.89h0c-.82-.22-1.67.27-1.89,1.09l-2.36,8.81c-.11.4-.05.82.16,1.18.21.36.55.61.95.72l8.58,2.19c.83.21,1.67-.29,1.88-1.11.21-.83-.29-1.67-1.11-1.88l-8.58-2.19,1.11,1.9,2.36-8.81Z"/>
    <path class="cls-1" d="M51.45,32.48l-1.35,5.55-1.07-1.85,5.32,1.56c.82.24,1.29,1.1,1.05,1.92-.24.82-1.1,1.29-1.92,1.05l-5.32-1.56c-.79-.23-1.26-1.05-1.07-1.85l1.36-5.55c.2-.83,1.04-1.34,1.87-1.13.83.2,1.34,1.04,1.13,1.87Z"/>
    <path class="cls-1" d="M51.45,32.48l-1.35,5.55-1.07-1.85,5.32,1.56c.82.24,1.29,1.1,1.05,1.92-.24.82-1.1,1.29-1.92,1.05h0l-5.32-1.56c-.79-.23-1.26-1.05-1.07-1.85l1.36-5.55c.2-.83,1.04-1.34,1.87-1.13h0c.83.2,1.34,1.04,1.13,1.87h0M51.45,32.48h0c.2-.83-.31-1.66-1.13-1.87h0c-.83-.2-1.66.31-1.87,1.13l-1.36,5.55c-.2.8.27,1.62,1.07,1.85l5.32,1.56h0c.82.24,1.68-.23,1.92-1.05.24-.82-.23-1.68-1.05-1.92l-5.32-1.56,1.07,1.85,1.35-5.55Z"/>
    <path class="cls-1" d="M18.43,46.67l8.63,2.41c.4.11.74.38.94.74.2.36.25.79.13,1.19l-2.5,8.42c-.24.82-1.1,1.28-1.92,1.04-.82-.24-1.28-1.1-1.04-1.92l2.5-8.42,1.07,1.93-8.63-2.41c-.82-.23-1.3-1.08-1.07-1.9s1.08-1.3,1.9-1.07Z"/>
    <path class="cls-1" d="M18.43,46.67l8.63,2.41c.4.11.74.38.94.74.2.36.25.79.13,1.19l-2.5,8.42c-.24.82-1.1,1.28-1.92,1.04-.82-.24-1.28-1.1-1.04-1.92l2.5-8.42,1.07,1.93-8.63-2.41c-.82-.23-1.3-1.08-1.07-1.9s1.08-1.3,1.9-1.07M18.43,46.67c-.82-.23-1.67.25-1.9,1.07s.25,1.67,1.07,1.9l8.63,2.41-1.07-1.93-2.5,8.42c-.24.82.22,1.68,1.04,1.92.82.24,1.68-.22,1.92-1.04l2.5-8.42c.12-.4.07-.82-.13-1.19-.2-.36-.54-.63-.94-.74l-8.63-2.41Z"/>
    <path class="cls-1" d="M29.58,42.69l5.46,1.42c.81.21,1.31,1.03,1.12,1.85l-1.33,5.63c-.2.83-1.03,1.34-1.86,1.15-.83-.2-1.34-1.03-1.15-1.86l1.33-5.63,1.12,1.85-5.46-1.42c-.83-.21-1.32-1.06-1.11-1.88.21-.83,1.06-1.32,1.88-1.11Z"/>
    <path class="cls-1" d="M29.58,42.69l5.46,1.42c.81.21,1.31,1.03,1.12,1.85l-1.33,5.63c-.2.83-1.03,1.34-1.86,1.15-.83-.2-1.34-1.03-1.15-1.86l1.33-5.63,1.12,1.85-5.46-1.42c-.83-.21-1.32-1.06-1.11-1.88.21-.83,1.06-1.32,1.88-1.11M29.58,42.69c-.83-.21-1.67.28-1.88,1.11-.21.83.28,1.67,1.11,1.88l5.46,1.42-1.12-1.85-1.33,5.63c-.2.83.32,1.66,1.15,1.86.83.2,1.66-.32,1.86-1.15l1.33-5.63c.19-.82-.3-1.64-1.12-1.85l-5.46-1.42Z"/>
  </g>
</svg>