<?xml version="1.0" encoding="UTF-8"?>
<svg id="Calque_1" data-name="Calque 1" xmlns="http://www.w3.org/2000/svg" viewBox="0 0 89.23 93.48">
  <path d="M11.11,85.72c1.53,7.43-4.92,11.26-7.98,3.48l.03-74.03C2.73,11.55.01,11.44,0,7.22c-.03-10.19,14.98-9.04,15.04,0,.02,3.49-5.48,7.11-3.92,11.5h67c1.56-4.39-3.94-8.01-3.92-11.5.06-9.04,15.07-10.19,15.04,0-.01,4.22-2.73,4.33-3.17,7.94v72.99c-2.11,8.31-9.57,5.92-7.94-2.44H11.11ZM18.11,25.72h-7v41h67V25.72h-7v34h-8V25.72h-7v34h-8V25.72h-7v34h-8V25.72h-7v34h-8V25.72Z"/>
</svg>