<?xml version="1.0" encoding="UTF-8"?>
<svg id="Calque_1" data-name="Calque 1" xmlns="http://www.w3.org/2000/svg" viewBox="0 0 180.61 167.61">
  <path d="M42.27,27.96c2.41-.73,3.72-.21,5.86.73,6.34,2.77,30.13,20.47,36.34,25.65,1.33,1.11,4.45,3.65,4.88,5.12l.22,100.81c-.09,2.75-1.3,5.09-3.96,6.04l-79.61.49c-3,.02-4.79-2.59-6-5V59.7s3.63-4.37,3.63-4.37l38.64-27.38ZM21.05,64.76c-2.55,0-1.32,14.74-1.34,17.34l1.34,1.66h15c3.66,0,3.66-19,0-19h-15ZM53.05,64.76c-2.55,0-1.32,14.74-1.34,17.34l1.34,1.66h15c3.66,0,3.66-19,0-19h-15ZM21.05,96.76c-2.55,0-1.32,14.74-1.34,17.34l1.34,1.66h15c3.66,0,3.66-19,0-19h-15ZM53.05,96.76c-2.55,0-1.32,14.74-1.34,17.34l1.34,1.66h15c3.66,0,3.66-19,0-19h-15ZM21.05,128.76c-2.55,0-1.32,14.74-1.34,17.34l1.34,1.66h15c3.66,0,3.66-19,0-19h-15ZM53.05,128.76c-2.55,0-1.32,14.74-1.34,17.34l1.34,1.66h15c3.66,0,3.66-19,0-19h-15Z"/>
  <path d="M108.26,89.97c19.83,1,42.3-2.05,61.83-.25,7.21.67,8.83,2.23,9.5,9.5,1.35,14.58,1.35,44.51,0,59.09-.39,4.25-1.83,7.89-6.5,8.5-19.62,2.59-44.86-2.08-65.1,0-2.92-.06-5.43-2.53-5.5-5.5,2.07-20.26-2.58-45.47,0-65.1.45-3.44,2.61-5.07,5.76-6.24ZM115.55,103.76v16.5l1.5,1.5h16.5c1.11-3.52,2.07-15.45-.24-17.76-2.27-2.04-16.99-1.46-17.76-.24ZM147.55,103.76v16.5l1.5,1.5h16.5c1.11-3.52,2.07-15.45-.24-17.76-2.27-2.04-16.99-1.46-17.76-.24ZM115.55,135.76v16.5l1.5,1.5h16.5c1.11-3.52,2.07-15.45-.24-17.76-2.27-2.04-16.99-1.46-17.76-.24ZM147.55,135.76v16.5l1.5,1.5h16.5c1.11-3.52,2.07-15.45-.24-17.76-2.27-2.04-16.99-1.46-17.76-.24Z"/>
  <path d="M102.55,53.26l-25.34-20.73c.04-7.72-4.73-30.44,5.79-31.82,20.21,1.86,44.35-2.32,64.07.03,2.27.27,6.48,2.02,6.48,4.52v71l-1.5,1.5h-48l-1.5-1.5v-23ZM89.55,15.26v15c0,3.66,19,3.66,19,0v-15c-4.43-3.08-11.93-1-17.34-1.34l-1.66,1.34ZM121.55,15.26v15c0,3.66,19,3.66,19,0v-15c-4.43-3.08-11.93-1-17.34-1.34l-1.66,1.34ZM121.55,47.26v15c0,3.66,19,3.66,19,0v-15c-4.43-3.08-11.93-1-17.34-1.34l-1.66,1.34Z"/>
</svg>