<?xml version="1.0" encoding="UTF-8"?>
<svg id="Calque_1" data-name="Calque 1" xmlns="http://www.w3.org/2000/svg" viewBox="0 0 113 68.49">
  <polygon points="113 27.25 113 41.25 105.44 42.18 103.86 56.11 94 56.25 94 12.25 104.06 12.68 105.43 26.31 113 27.25"/>
  <polygon points="0 27.25 7.56 26.31 9.14 12.39 19 12.25 19 56.25 9.14 56.11 7.56 42.18 0 41.25 0 27.25"/>
  <path d="M42,66.75c-.76,2.45-12.91,2.23-14.51-.49l-.32-63.35c1.14-3.41,12.41-3.86,14.84-1.16v23c0,.35-1.77,1.11.5,2.5h28l1.28-1.5c.03-.41-.78-.75-.78-1V1.75c2.16-2.65,13.01-2.05,14.51.49l.32,63.35c-1.14,3.41-12.41,3.86-14.84,1.16v-23c0-.35,1.77-1.11-.5-2.5h-28l-1.28,1.5c-.03.41.78.75.78,1v23Z"/>
</svg>