<?xml version="1.0" encoding="UTF-8"?>
<svg id="Calque_1" data-name="Calque 1" xmlns="http://www.w3.org/2000/svg" viewBox="0 0 97.31 90.11">
  <path d="M16.51,41.09c-2.61-.8-2.12-6.19,2.03-6.97,5.11-.96,26.29-.67,31.97-.03,13.68,1.54,13.66,14.34,20.57,18.43,5.29,3.14,20.6,2.19,24.4,6.6,2.25,2.6,2.14,14.52.77,17.72-1.57,3.67-4.81,2.92-7.2,4.8-3.96,3.13-4.67,8.47-12.55,8.47-7.49,0-8.86-5.84-12.52-7.5-1.83-.83-26.56-1.05-29.46-.5-4.14.79-6.44,8.52-14.9,7.94-6.09-.42-7.36-4.36-11.08-7-2.37-1.68-6.6-1.62-8.54-5.46v-26c0-.14,1.56-1.79,2.01-2,4.83-2.31,4.88,2.92,6.42,3.18.69.12,2.63-.74,4.01-.72,14.38.16,28.75-.13,43.12-.02,1.56.01,5.77,1.99,5-.97s-8.07-9.96-11.07-9.96H16.51ZM26.17,76.73c0-3.12-2.53-5.65-5.65-5.65s-5.65,2.53-5.65,5.65,2.53,5.65,5.65,5.65,5.65-2.53,5.65-5.65ZM82.17,76.73c0-3.12-2.53-5.65-5.65-5.65s-5.65,2.53-5.65,5.65,2.53,5.65,5.65,5.65,5.65-2.53,5.65-5.65Z"/>
  <path d="M86.02.08v4.02c14.49-2.05,15.62,9.5-.01,6.99v8.01c14.53-2.04,15.61,9.51,0,6.99v4.02c-6.62-.4-17.52,2.49-18.94-6.57-.53-3.4-.5-16.4.69-19.19C70.32-1.63,80.72.41,86.02.08Z"/>
  <path d="M60.01,19.09H9.51c-1.83,0-1.76,6.79-5.01,7.08C-3.85,26.9-.23,12.26,12.46,11.04c14.43-1.39,31.22,1.02,45.91.19l1.5,1.5.14,6.36Z"/>
  <circle cx="3.79" cy="37.59" r="3.61"/>
</svg>