<?xml version="1.0" encoding="UTF-8"?>
<svg id="Calque_1" data-name="Calque 1" xmlns="http://www.w3.org/2000/svg" viewBox="0 0 21.17 20.17">
  <defs>
    <style>
      .cls-1 {
        fill: #ebc351;
      }
    </style>
  </defs>
  <path class="cls-1" d="M10.86.19l2.4,6.97c.04.11.15.19.27.19l7.37.13c.27,0,.39.35.17.52l-5.89,4.43c-.1.07-.14.2-.1.31l2.15,7.05c.08.26-.22.48-.44.32l-6.04-4.23c-.1-.07-.23-.07-.33,0l-6.04,4.23c-.22.16-.52-.06-.44-.32l2.15-7.05c.04-.12,0-.24-.1-.31L.11,8c-.22-.16-.11-.51.17-.52l7.37-.13c.12,0,.23-.08.27-.19L10.32.19c.09-.26.45-.26.54,0Z"/>
</svg>