<?xml version="1.0" encoding="UTF-8"?>
<svg id="Calque_1" data-name="Calque 1" xmlns="http://www.w3.org/2000/svg" viewBox="0 0 38.52 86.49">
  <defs>
    <style>
      .cls-1 {
        fill: #010101;
      }
    </style>
  </defs>
  <path d="M23.21,18.69c11.27.2,19.17,12.01,13.34,21.79-2.51,4.2-9.62,6.3-9.74,12.13-.1,4.74,6.7,12.57,7.66,17.24,2.54,12.26-11.1,21.05-21.28,14.28-6.6-4.39-5.24-13.29-6.79-20.21-2.7-12.04-10.08-19.41-3.88-32.48,3.49-7.34,12.63-12.9,20.69-12.76Z"/>
  <g>
    <path d="M30.41.3c8.89-2.68,10.84,13.71,2.73,14.87-8.47,1.21-8.12-13.24-2.73-14.87Z"/>
    <path d="M19.39,2.24c3.79-.95,7.13,5.76,3.35,9.43-6,5.82-8.69-8.09-3.35-9.43Z"/>
    <path d="M10.34,6.2c5.33-1.54,6.17,10.07.85,9.66-3.72-.28-4.68-8.55-.85-9.66Z"/>
    <path d="M5.21,19.94c-.77.15-1.53-.31-1.79-1.05-.34-1-.83-1.99-.57-3.04,1.67-6.88,10.16,2.54,2.36,4.1Z"/>
    <path class="cls-1" d="M.71,21.14c3.34-2.36,5.88,5.31,2.48,5.99-2.9.58-4.06-4.87-2.48-5.99Z"/>
  </g>
</svg>