<?xml version="1.0" encoding="UTF-8"?>
<svg id="Calque_1" data-name="Calque 1" xmlns="http://www.w3.org/2000/svg" viewBox="0 0 84.75 89.91">
  <path d="M8.84,14.61c5.05,2.97,55.55-1.82,65.31.32,2.23-.33,1.98-2.99,4.43-3.71,3.77-1.1,4.84,4.46,5.08,7.08,1.51,16.35,1.4,48.65,0,65.09-.27,3.15-.97,7.46-5.35,6.33-2.33-.6-1.91-4.04-4.16-3.95H10.08c-2.25-.09-1.83,3.35-4.16,3.95-4.38,1.12-5.08-3.18-5.35-6.33-1.82-21.37,1.39-45.34.1-66.99.85-3.45,2.64-6.93,6.34-4.43,1.06.71,1.39,2.38,1.82,2.64ZM75.46,52.34c0-2-1.62-3.62-3.62-3.62s-3.62,1.62-3.62,3.62,1.62,3.62,3.62,3.62,3.62-1.62,3.62-3.62Z"/>
  <circle cx="4.97" cy="3.76" r="3.75"/>
  <circle cx="79.26" cy="3.76" r="3.76"/>
</svg>