<?xml version="1.0" encoding="UTF-8"?>
<svg id="Calque_1" data-name="Calque 1" xmlns="http://www.w3.org/2000/svg" viewBox="0 0 1840.79 1878.43">
  <defs>
    <style>
      .cls-1 {
        fill: #34a753;
      }

      .cls-2 {
        fill: #4284f3;
      }

      .cls-3 {
        fill: #fabb05;
      }

      .cls-4 {
        fill: #e94335;
      }
    </style>
  </defs>
  <path class="cls-2" d="M1560.27,1651.06l-304-237c97.63-65.67,166.21-165.51,188-282h-505v-364h883.5l1.31,1.69c54.76,316.31-22.95,660.33-263.81,881.31Z"/>
  <path class="cls-1" d="M1256.27,1414.06l304,237c-162.96,149.51-373.02,221.3-593.46,227.04-366.91,9.55-703.09-192.51-865.54-519.04l312-241c53.21,162.25,186.35,299.52,347.48,356.02,159.09,55.79,355.34,34.28,495.52-60.02Z"/>
  <path class="cls-3" d="M414.27,760.06c-39.71,118.16-39.88,239.45-1,358l-312,241c-134.18-269.7-135.86-570.4,0-840l313,241Z"/>
  <path class="cls-4" d="M414.27,760.06l-313-241C286.55,151.37,678.44-51.3,1088.6,11.23c167.03,25.46,323.23,98.5,450.68,208.32l27.95,25.95-268.6,268.49c-57.96-53.52-126.72-94.51-202.6-117.19-290.33-86.78-587.23,81.94-681.77,363.27Z"/>
</svg>