<?xml version="1.0" encoding="UTF-8"?>
<svg id="Calque_1" data-name="Calque 1" xmlns="http://www.w3.org/2000/svg" viewBox="0 0 150.41 120.06">
  <path d="M143.23,15.06v103.5l-1.5,1.5h-43c-2.47-1.61-.51-3.91-.45-6.46.15-7.06,1.07-21.9-.08-28.01-.29-1.56-1.03-2.76-2.59-3.3l-41.94.65c-1.23,1.04-1.31,2.1-1.49,3.58-.91,7.18-.17,19.39,0,27.09.06,2.54,2.02,4.85-.45,6.46H8.73l-1.5-1.5V15.06c0-.21-2.19-.07-4.05-1.44C-2.2,9.68-.36,2.18,5.75.08l137.04-.08c9.87.57,10.27,13.98.44,15.06ZM22.33,23.16l.34,13.97,13.63.5-.03-15.14-13.94.67ZM67.33,23.51l-12.64-1.05-1.55,14.2s13.19.69,13.69.47M86.11,23.75l-3.27-.2.27,13.07,13.72.54.45-13.71-3.5.2c-5.21.41-5.55-.31-7.67.1ZM128.14,23.16l-13.94-.67-.03,15.14,13.63-.5.34-13.97ZM22.33,53.16l.34,13.97,13.63.5-.03-15.14-13.94.67ZM67.33,53.51l-7.6-.35-5.82-.25-.78,13.75,14.07.16M86.04,53.4l-2.83.37-.1,12.84,13.72.54.16-13.14-7.26-.86-3.69.24ZM128.14,53.16l-13.94-.67-.03,15.14,13.63-.5.34-13.97ZM22.23,97.06l14.06.56-.64-15.45-13.42.88v14ZM128.23,83.06l-13.42-.89-.64,15.45,14.06-.56v-14Z"/>
</svg>