<?xml version="1.0" encoding="UTF-8"?>
<svg id="Calque_1" data-name="Calque 1" xmlns="http://www.w3.org/2000/svg" viewBox="0 0 98.06 94.82">
  <path d="M4.14,37.44c27.91,1.48,59.32-2.74,86.82-.27,7.55.68,7.82,5.52,6.47,12.56-.47,2.46-3.21,2.33-4.37,5.63-2.87,8.18-2.67,29.37-6.61,35.39-1.27,1.93-4.2,3.45-6.52,3.48-19.66-1.42-41.71,1.81-61.07.02-4.74-.44-7.19-1.71-8.63-6.37-2.82-9.09-2.33-25.54-5.71-33.29-1.11-2.54-3.65-2.38-4.13-4.87-.68-3.5-1.06-11.98,3.74-12.29ZM30.41,54.72v26c0,2.44,7,2.44,7,0v-26c0-1.72-6.24-2.46-7,0ZM45.41,54.72v26c0,2.44,7,2.44,7,0v-26c0-1.72-6.24-2.46-7,0ZM60.41,54.72v26c0,2.44,7,2.44,7,0v-26c0-1.72-6.24-2.46-7,0Z"/>
  <path d="M82.41,30.22h-32.5c-1.87-1.26-.62-6.01-.04-8.05,1.41-4.98,6.12-9.41,7.14-12.93s-2.79-7.91,2.93-9c2.17-.41,11.74-.35,13.46.48,4.43,2.12-.04,5.44.16,6.82.59,4.16,12.16,15.11,8.85,22.68Z"/>
  <path d="M40.41,30.22H11.41c1.26-3.13,5.19-12.7,8.54-13.03,3.17-.31,17.56,10.22,20.46,13.03Z"/>
  <path d="M45.39,12.26l-2.99,8.96-10.99-6.01c2.72-4.74,9.33-4.66,13.97-2.95Z"/>
</svg>