<?xml version="1.0" encoding="UTF-8"?>
<svg id="Calque_1" data-name="Calque 1" xmlns="http://www.w3.org/2000/svg" viewBox="0 0 104.9 74.99">
  <path d="M103.62,13.99c-.54.76-2.24.43-2.68,2.78-3.07,16.68,9.42,55.04-16.43,57.58-20.75,2.03-44.87-1.57-65.99-.11C-4.5,70.63,6.79,32.04,3.98,16.77,3.51,14.21-.25,14.27.01,10.77c.93-5.81,8.76-3.17,10.43.54s-.22,9.44.65,13.35l2.36,1.64h78l2.36-1.64c.43-7.66-2.27-17.23,8.42-17.22l2.57,2.56c.32,1.6-.31,2.75-1.19,3.99ZM56.08,40.94c0-4.13-3.35-7.48-7.48-7.48s-7.48,3.35-7.48,7.48,3.35,7.48,7.48,7.48,7.48-3.35,7.48-7.48ZM82.2,37.28c0-2.07-1.68-3.74-3.74-3.74s-3.74,1.68-3.74,3.74,1.68,3.74,3.74,3.74,3.74-1.68,3.74-3.74ZM71.08,56.06c0-2-1.62-3.62-3.62-3.62s-3.62,1.62-3.62,3.62,1.62,3.62,3.62,3.62,3.62-1.62,3.62-3.62Z"/>
  <circle cx="65.47" cy="5.65" r="5.65"/>
</svg>