<svg width="37" height="37" viewBox="0 0 37 37" fill="none" xmlns="http://www.w3.org/2000/svg">
<g clip-path="url(#clip0_117_313)">
<path d="M16.5213 15.1307C15.9838 15.6259 15.4268 16.1188 14.9025 16.6471C14.8198 16.7311 14.835 16.9898 14.8938 17.129C15.2767 18.0221 15.6488 18.9218 16.0905 19.7839C16.6997 20.9687 16.7563 22.1293 16.2711 23.3848C14.7719 27.2621 13.3163 31.1593 11.8476 35.0499C11.1405 36.9244 10.0482 37.4063 8.17262 36.6746C5.97938 35.8169 3.78614 34.9659 1.59073 34.1126C0.293934 33.6086 -0.317474 32.311 0.16556 30.9825C0.848771 29.1057 1.56244 27.24 2.26741 25.3721C3.08117 23.2124 3.92757 21.0638 4.70434 18.8908C5.15474 17.6286 5.93369 16.7842 7.17173 16.3023C8.11604 15.9353 9.00814 15.4358 9.94374 15.0401C10.3332 14.8743 10.2766 14.5781 10.3093 14.2819C10.5356 12.1266 10.6879 9.96025 11.0099 7.81824C11.2384 6.29517 11.6953 4.80969 12.7984 3.64253C13.3968 3.01031 14.1213 2.80031 14.9699 2.88652C15.1744 2.90642 15.4638 2.81579 15.6009 2.66768C19.1214 -1.14771 25.3182 -0.836024 28.3447 3.38168C30.3247 6.13823 30.5576 9.1313 29.1454 12.2305C28.9888 12.5731 29.0149 12.7942 29.2216 13.0616C29.4327 13.3357 29.6307 13.6231 29.8221 13.9149C30.142 14.399 30.2508 14.8809 30.0114 15.4689C29.6785 16.2824 29.8287 16.4703 30.6968 16.5477C31.5628 16.625 31.7434 16.8704 31.5497 17.7237C31.4344 18.2255 31.2712 18.7162 31.1842 19.2224C31.0645 19.9121 31.38 20.1884 32.0545 20.0447C32.4244 19.9651 32.7965 19.8789 33.1707 19.8347C33.8452 19.7574 34.0345 19.9541 34.0911 20.6239C34.1063 20.7941 34.2652 21.0328 34.4175 21.0992C36.0102 21.7866 37.146 23.67 36.9937 25.4296C36.9306 26.1436 36.8631 26.8576 36.787 27.5716C36.7021 28.3895 36.1886 28.8604 35.438 28.7189C34.5328 28.5487 33.6277 28.3409 32.7464 28.0756C31.9871 27.8457 31.3887 27.3439 30.9144 26.6874C28.5863 23.4755 26.2451 20.2724 23.9213 17.0561C23.7342 16.7952 23.5666 16.7245 23.2489 16.782C20.8272 17.2108 18.6188 16.6935 16.654 15.1705C16.6279 15.1506 16.5866 15.1506 16.53 15.1373L16.5213 15.1307ZM15.4595 14.1138C13.0508 11.0898 12.7027 7.77624 14.4695 4.18853C13.7036 4.29022 13.3598 4.84285 13.0987 5.41538C11.778 8.30234 11.7671 11.4214 11.5365 14.5537C12.5547 14.5736 13.3729 14.9561 14.1279 15.7187C14.5848 15.1683 15.0156 14.651 15.4595 14.1138ZM5.32663 29.7335C5.21784 29.3334 4.94368 28.9046 5.04812 28.615C5.48111 27.408 6.02942 26.2431 6.53422 25.0649C6.59296 25.0759 6.65171 25.0892 6.71046 25.1002V30.2663C6.76268 30.2817 6.81707 30.2972 6.86929 30.3127C7.85059 28.993 8.83189 27.6755 9.81537 26.3558C9.59126 27.5252 9.25183 28.626 8.94504 29.7357C8.78403 30.3215 8.51857 30.726 7.82448 30.7216C8.60561 31.0223 9.38673 31.3229 10.0438 31.5771C10.0438 31.1372 9.96333 30.7371 10.0591 30.3856C10.3963 29.1278 10.801 27.8899 11.1579 26.6366C11.2797 26.2121 11.4472 25.8783 11.9499 25.8253C11.3667 25.5998 10.7858 25.3743 10.3724 25.213C9.5608 26.347 8.81013 27.397 8.06165 28.447C7.99637 28.4227 7.93328 28.3961 7.868 28.3718C7.868 27.1406 7.87453 25.9115 7.8593 24.6802C7.85712 24.5056 7.79185 24.2337 7.67435 24.174C7.23048 23.9507 6.75398 23.7982 6.28835 23.617C6.69958 24.1165 6.59296 24.5852 6.34927 25.0737C5.88147 26.0065 5.40931 26.9372 4.97415 27.8855C4.69129 28.5045 4.37144 29.0306 3.58597 29.0637C4.17997 29.2914 4.77397 29.5191 5.32445 29.7291L5.32663 29.7335ZM19.3325 9.02298C19.2824 9.05172 19.3455 9.02298 19.3999 8.98098C20.7816 7.94866 22.1654 6.92297 23.5383 5.87959C24.1759 5.39549 24.1606 5.08822 23.5057 4.61296C21.728 3.31758 19.7285 3.81274 18.3816 5.24959C18.2902 5.34685 18.2641 5.58117 18.3055 5.72265C18.6297 6.81686 18.98 7.90445 19.3325 9.02298ZM10.875 17.1224C10.0395 17.2263 9.43895 17.8452 9.2997 18.7781C9.1735 19.6159 9.63695 20.4846 10.4072 20.856C11.2492 21.2627 12.1936 21.0527 12.8093 20.321C13.3272 19.7043 13.3794 18.8002 13.0073 18.2078C12.4916 18.3006 11.9107 18.5924 11.5865 18.4111C11.2297 18.2122 11.1078 17.5778 10.8772 17.1224H10.875ZM17.7006 9.42088C17.7724 9.40761 17.8464 9.39656 17.9182 9.3833C17.8072 8.63171 17.6962 7.88013 17.5853 7.12855C17.5287 7.13739 17.4743 7.14623 17.4177 7.15507C17.2654 7.94645 17.3111 8.70908 17.7006 9.42088Z" fill="#083A31"/>
</g>
<defs>
<clipPath id="clip0_117_313">
<rect width="37" height="37" fill="white"/>
</clipPath>
</defs>
</svg>
