<?xml version="1.0" encoding="UTF-8"?>
<svg id="Calque_1" data-name="Calque 1" xmlns="http://www.w3.org/2000/svg" viewBox="0 0 96.98 63.91">
  <path d="M65.03,36.88c-18.77-.27-33.02,18.66-51.99,8.99-1.15-1.49,22.48-13.71,24.36-15.12,3.92-2.93-3.68-10.91-6.05-13.72-3.28-.8-26.03,10.34-23.86.76.28-.98.83-1.7,1.63-2.32,1.96-1.54,18.68-10.02,21.19-10.8,1.69-.53,3.14-1.32,5-.61l29.72,32.82Z"/>
  <path d="M62.81,44.16c9.79-1.12,22.69,1.99,30.91,7.53,4.4,2.96,4.35,8.09-.17,8.17-.95.02-13.29-6.64-17.47-7.54-21.03-4.5-32.99,12.25-51.51,11.57-5.01-.18-24.53-5.34-24.57-11.51,2.86-7.73,9.38.28,15.03,2,20.99,6.38,29.89-8.18,47.78-10.22Z"/>
  <circle cx="76.53" cy="13.05" r="13.05"/>
</svg>