<?xml version="1.0" encoding="UTF-8"?>
<svg id="Calque_1" data-name="Calque 1" xmlns="http://www.w3.org/2000/svg" viewBox="0 0 147.02 146.71">
  <path d="M47.02,29.12l-9.99-.99c1.15,8.41,6.7,16.08,11.58,22.91,1.65,2.31,9.05,9.4,8.41,11.55-1.47,4.91-17.59-4.16-17.97.02,4.48,14.97,15.99,25.67,24.92,37.89-1.04,1.81-2.3,2.6-4.4,2.67-3.5.11-21.29-6.31-22.54-5.05l.85,47.36-1.9,1.22-10.96-.58,1-48.01-24.34,4.89c-5.91-1.92,5.5-12.02,7.31-14.42,6.18-8.15,13.24-17.2,15.02-27.47l-16.34,2.89-1.53-2.24c7.15-10.66,18.35-20.27,19.87-33.65-.95-.97-10.73,3.36-10.01-.52.43-2.31,6.7-10.38,8.4-13.61,1.17-2.23,4.97-13.02,5.57-13.43,1.35-.93,2.5-.7,3.54.57.98,1.21,3.48,9.55,4.81,12.19,2.21,4.4,5.69,8.44,7.74,12.26.65,1.21,1.36,1.9.97,3.52Z"/>
  <path d="M125.25,145.91c-1.28-3.98-7.55-31.28-9.74-31.78-1.68-.39-2.48,1.85-2.98,3-2.15,4.94-4.91,26.72-8.73,28.34l-42.25.64c-2.71-.43-4.68-3.82-4.51-6.4,4.51-6.96,17.35-41.68,23.01-44.05l42.46-.5c.84,0,1.41.54,2.08.92,6.1,3.48,17.35,36.14,22.43,43.63.15,2.14-1.57,5.6-3.68,6.23-1.74.52-17.53.7-18.08-.02Z"/>
  <circle cx="127.63" cy="18.51" r="12.73"/>
</svg>