<?xml version="1.0" encoding="UTF-8"?>
<svg id="Calque_1" data-name="Calque 1" xmlns="http://www.w3.org/2000/svg" viewBox="0 0 97.25 90.29">
  <path d="M51.96,24.22c-2.38,15.24,7.45,26.25,23,23.99v8.01c-16.23,1.37-28.12-7.57-30.9-23.61-.28-1.64.26-5.75-.21-6.29-.4-.46-5.79-.44-6.75-3.8l1.49-4.26c1.82-1.32,4.58.32,6.79-.04s3.77-2.9,6.17-3.03c3.01-.17,7.24,6.22,10.41,2.57s-1.79-7.67-5-9.04C40.94,1.88,21.43,21.82,12.28,33.14l-3.04.37c-5.07-2.29-.51-7.85,1.73-10.76C21.3,9.34,43.25-5.49,60.63,2.03c17.04,7.38,8.99,30.87-8.68,22.19Z"/>
  <path d="M3.55,78.62c2.8-.09,9.11,3.65,15,3.65s11.58-3.62,15-3.62c2.64,0,7.82,3.18,12.01,3.55,8.35.72,12.96-3.55,17.99-3.54,4.65,0,9.67,4.4,18.01,3.56,3.88-.39,12.14-5.23,14.49-2.54,5.66,6.49-12.3,10.43-16.56,10.57-5.8.19-12.09-3.59-15.94-3.59s-10.14,3.78-15.94,3.59c-4.51-.15-10.89-3.59-14.06-3.59-3.47,0-9.95,3.63-15,3.63-3.32,0-14.77-2.8-17.05-5.02-2.75-2.67-1.52-6.53,2.05-6.65Z"/>
  <path d="M3.55,63.62c2.22-.07,8.01,3.23,12.01,3.58,8.36.72,13.39-3.55,17.99-3.55,3.42,0,8.83,3.62,15,3.62s12.19-3.74,15.01-3.65c4.8.16,9.56,4.29,17.99,3.57,4.08-.35,12.28-5.08,14.51-2.52,6.63,7.6-16.28,10.88-21.24,10.28-3.46-.42-8.6-3.3-11.26-3.3-4.22,0-10.48,3.95-16.96,3.58-4.24-.24-9.93-3.58-13.04-3.58-3.46,0-9.95,3.63-15,3.63-3.32,0-14.77-2.8-17.05-5.02-2.75-2.67-1.52-6.53,2.05-6.65Z"/>
</svg>