<?xml version="1.0" encoding="UTF-8"?>
<svg id="Calque_1" data-name="Calque 1" xmlns="http://www.w3.org/2000/svg" viewBox="0 0 82.43 93.28">
  <path d="M26.33,78.39c-2.24.73-2.47,11.1-4.43,13.57-1.67,2.11-5.47,1.59-6.43-.84-1.61-4.11,6.84-26.08,7.15-32.12-5.64-5.08-11.16-9.28-14.67-16.24-1.17-2.31-2.05-7.44-3.04-8.72-.87-1.13-3.03-.36-4.37-2.92-1.97-3.76,1.89-4.52,4.73-4.79,23.13-2.17,49.62,1.79,73.12,0,2.44-.37,4.9,2.4,3.75,4.78-1.24,2.56-3.51,1.79-4.39,2.93-.97,1.25-1.67,5.92-2.73,8.04-3.65,7.35-8.98,11.67-15.02,16.93,2.18,5.08,2.71,12.98,5.05,17.65,1.47,2.93,4.64,3.17,5.34,5.63,2.3,8.02-4.53,14.27-11.08,9.11-6.02-4.74-1.65-7.15-1.48-13.01h-31.5ZM55.83,70.39l-3.57-8.9c-7.28,2.54-14.62,2.75-21.85-.12l-2.58,9.02h28Z"/>
  <path d="M37.83,1.89c.97-3.11,7-1.86,7,0v15c0,2.04-7,2.04-7,0V1.89Z"/>
  <path d="M25.53,7.55c6.43-1.81,5.87,10.24,2.69,10.77-6.46,1.07-7.46-9.43-2.69-10.77Z"/>
  <path d="M54.45,7.46c6.68-1.29,7.65,10.41,1.84,10.96-5.38.51-4.2-10.51-1.84-10.96Z"/>
</svg>