<?xml version="1.0" encoding="UTF-8"?>
<svg id="Calque_1" data-name="Calque 1" xmlns="http://www.w3.org/2000/svg" viewBox="0 0 60.42 90.13">
  <path d="M41.37,50.63l18.17,7.39c.56,5.07,2.24,29.14-1.32,31.31-8.96,5.45-5.09-18.78-9.06-21.99-.28-.23-3.05-1.42-3.47-1.53-.52-.13-1.87,8.26-2.71,10.27-6.56,15.68-26.97,18.23-37.75,5.2-12.26-14.82-1.45-35.71,16.93-36.52-1.17-7.25.59-19.57,10.49-18.92,11.5.76,8.02,17.27,8.73,24.8ZM37.32,67.19c0-8.2-6.65-14.85-14.85-14.85s-14.85,6.65-14.85,14.85,6.65,14.85,14.85,14.85,14.85-6.65,14.85-14.85Z"/>
  <circle cx="31.8" cy="9.39" r="9.39"/>
</svg>