<?xml version="1.0" encoding="UTF-8"?>
<svg id="Calque_1" data-name="Calque 1" xmlns="http://www.w3.org/2000/svg" viewBox="0 0 108.44 94.11">
  <path d="M108.44,62.11v11c-3.6,10.85-10.15,17.4-21,21h-11c-21.22-6.55-28.89-32.54-10.53-47.03,16.22-12.8,36.56-3.35,42.53,15.03ZM93.11,56.25c-3.44.3-10.86,10.67-14.31,12.78-1.87.33-6.47-7.35-10.42-4.5-4.53,3.27,7.45,16.23,12.04,14.08,1.06-.5,15.67-15.48,16.29-16.81,1.19-2.56-1.46-5.74-3.6-5.55Z"/>
  <path d="M43.23.4c21.71-2.22,47.19,4.72,61.13,22.07l-12.42,12.46c-22.93-21.35-57.08-21.23-80.02,0-3-3.62-9.05-7.66-11.55-11.29-2.23-3.25,6.02-8.46,8.75-10.34C18.63,6.74,31.7,1.58,43.23.4Z"/>
  <path d="M77.44,34.1c-3.24.81-6.61,1.43-9.68,2.83-3.28,1.49-9.76,7.61-11.02,7.98-3.59,1.06-8.5-.03-13.52,1.48-4.52,1.36-8.29,4.4-12.28,6.76l-13.48-12.54c15.45-15.7,41.91-19.6,59.98-6.51Z"/>
  <path d="M51.44,53.12c-2.93,5.62-2.83,11.88-3.49,17.99l-11.5-12.46c4.16-3.72,9.27-6.14,15-5.53Z"/>
</svg>