<?xml version="1.0" encoding="UTF-8"?>
<svg id="Calque_1" data-name="Calque 1" xmlns="http://www.w3.org/2000/svg" viewBox="0 0 768 765">
  <defs>
    <style>
      .cls-1 {
        fill: #0866fe;
      }
    </style>
  </defs>
  <path class="cls-1" d="M408.17,0l33.32,4.17c160.98,24.08,290.78,149.49,320.2,309.65l6.31,46.19v50c-2.35,10.27-2.59,20.92-4.16,31.33-25.52,169.08-162.49,303.75-332.68,323.67v-263h102.45l22.49-118h-124.94c1.03-47.31-10.06-106.64,47.76-122.72,26.34-7.32,56.1-3.78,83.18-3.28v-107c-9.22-1.38-18.38-3.54-27.63-4.86-77.05-10.94-175.84-5.44-218.43,70.19-28.52,50.65-24.8,111.39-24.82,167.67h-78.96v118h78.96v254C141.85,720.82,27.2,592.88,4.53,441.33c-1.56-10.42-1.82-21.06-4.16-31.33.85-17.02-1.14-35.11,0-52C13.18,167.74,169.28,12.63,359.19,0h48.98Z"/>
</svg>